<svg xmlns="http://www.w3.org/2000/svg" viewBox="0 0 1200 640" width="1200" height="640" font-family="Inter, ui-sans-serif, system-ui, -apple-system, Segoe UI, sans-serif">
  <defs>
    <linearGradient id="grad" x1="0" y1="0" x2="1" y2="1">
      <stop offset="0" stop-color="#8b5cf6"/><stop offset="1" stop-color="#ec4899"/>
    </linearGradient>
    <pattern id="dots" width="26" height="26" patternUnits="userSpaceOnUse">
      <circle cx="1.5" cy="1.5" r="1.2" fill="#ffffff" fill-opacity="0.045"/>
    </pattern>
    <filter id="drop" x="-30%" y="-30%" width="160%" height="160%">
      <feDropShadow dx="0" dy="16" stdDeviation="28" flood-color="#000000" flood-opacity="0.5"/>
    </filter>
    <filter id="fab" x="-80%" y="-80%" width="260%" height="260%">
      <feDropShadow dx="0" dy="8" stdDeviation="12" flood-color="#8b5cf6" flood-opacity="0.45"/>
    </filter>
    <filter id="glow" x="-60%" y="-60%" width="220%" height="220%"><feGaussianBlur stdDeviation="80"/></filter>
    <clipPath id="win"><rect x="150" y="76" width="900" height="520" rx="18"/></clipPath>
    <clipPath id="chat"><rect x="700" y="252" width="300" height="256" rx="16"/></clipPath>
  </defs>

  <rect x="1" y="1" width="1198" height="638" rx="20" fill="#0b0b0b" stroke="#1f1f1f"/>
  <rect x="1" y="1" width="1198" height="638" rx="20" fill="url(#dots)"/>
  <ellipse cx="600" cy="330" rx="300" ry="200" fill="#8b5cf6" opacity="0.10" filter="url(#glow)"/>

  <text x="600" y="40" text-anchor="middle" font-family="ui-monospace, SFMono-Regular, Menlo, monospace" font-size="15" letter-spacing="3" fill="#c084fc" font-weight="600">САЙТ С ИИ-ФУНКЦИЕЙ</text>

  <!-- окно браузера: сайт клиента с чат-виджетом в углу -->
  <g filter="url(#drop)">
    <rect x="150" y="76" width="900" height="520" rx="18" fill="#131313" stroke="#2a2a2a"/>
  </g>
  <g clip-path="url(#win)">
    <!-- шапка браузера -->
    <rect x="150" y="76" width="900" height="72" fill="#181818"/>
    <rect x="150" y="76" width="900" height="38" fill="#0f0f0f"/>
    <path d="M162 114 v-22 a8 8 0 0 1 8-8 h176 a8 8 0 0 1 8 8 v22 z" fill="#181818"/>
    <circle cx="180" cy="99" r="6" fill="url(#grad)"/>
    <text x="196" y="103" fill="#ededed" font-size="12.5" font-weight="600">Ромашка</text>
    <g transform="translate(334,95)" stroke="#8f8f8f" stroke-width="1.3" stroke-linecap="round"><path d="M0 0l7 7M7 0l-7 7"/></g>
    <g transform="translate(372,93)" stroke="#6b6b6b" stroke-width="1.5" stroke-linecap="round"><path d="M6 0v12M0 6h12"/></g>
    <g stroke="#c9c9c9" stroke-width="1.3" fill="none" stroke-linecap="round" stroke-linejoin="round">
      <path d="M964 95h11"/>
      <rect x="996" y="90" width="10" height="10" rx="1"/>
      <path d="M1028 90l10 10M1038 90l-10 10"/>
    </g>
    <g fill="none" stroke-width="1.6" stroke-linecap="round" stroke-linejoin="round">
      <g transform="translate(172,124)" stroke="#b0b0b0"><path d="M13 6H1"/><path d="M6 1 1 6l5 5"/></g>
      <g transform="translate(200,124)" stroke="#565656"><path d="M1 6h12"/><path d="M8 1l5 5-5 5"/></g>
      <g transform="translate(228,123)" stroke="#b0b0b0"><path d="M13 6.5a5.5 5.5 0 1 1-1.6-3.9"/><path d="M13 1v4h-4"/></g>
      <g transform="translate(256,123)" stroke="#b0b0b0"><path d="M1 6l6-5 6 5"/><path d="M2.5 5.5v6.5h9V5.5"/></g>
    </g>
    <rect x="286" y="119" width="640" height="24" rx="12" fill="#0d0d0d" stroke="#262626"/>
    <g transform="translate(300,124)" stroke="#8f8f8f" stroke-width="1.2" fill="none" stroke-linecap="round" stroke-linejoin="round">
      <rect x="0" y="5" width="9" height="6.5" rx="1.4"/><path d="M1.7 5V3.7a2.8 2.8 0 0 1 5.6 0V5"/>
    </g>
    <text x="320" y="135" fill="#8f8f8f" font-size="12.5" font-family="ui-monospace, monospace">example.com</text>
    <g transform="translate(902,125)" fill="none" stroke="#8f8f8f" stroke-width="1.2" stroke-linecap="round" stroke-linejoin="round"><path d="M6 0.5l1.6 3.5 3.9.4-2.9 2.6.8 3.8L6 8.9 2.6 10.8l.8-3.8L.5 4.4l3.9-.4z"/></g>
    <g transform="translate(1010,123)" fill="#8f8f8f"><circle cx="0" cy="0" r="1.5"/><circle cx="0" cy="5.5" r="1.5"/><circle cx="0" cy="11" r="1.5"/></g>
    <line x1="150" y1="148" x2="1050" y2="148" stroke="#242424"/>

    <!-- навигация сайта -->
    <text x="210" y="192" fill="#ededed" font-size="18" font-weight="700">Ромашка</text>
    <text x="726" y="191" fill="#8f8f8f" font-size="14">Возможности</text>
    <text x="862" y="191" fill="#8f8f8f" font-size="14">Тарифы</text>
    <text x="942" y="191" fill="#8f8f8f" font-size="14">Контакты</text>
    <line x1="150" y1="212" x2="1050" y2="212" stroke="#1c1c1c"/>

    <!-- герой: минимум элементов, крупные интервалы -->
    <rect x="210" y="240" width="196" height="28" rx="14" fill="#1a1a1a" stroke="#2a2a2a"/>
    <text x="228" y="258" fill="#c084fc" font-size="12" font-weight="600">★ 4.9</text>
    <text x="270" y="258" fill="#a1a1a1" font-size="12">· 240 отзывов</text>
    <text x="210" y="328" fill="#ededed" font-size="30" font-weight="700">Запись и заявки</text>
    <text x="210" y="372" fill="#ededed" font-size="30" font-weight="700">на автопилоте</text>
    <text x="210" y="416" fill="#a1a1a1" font-size="15">Отвечаем клиентам и оформляем записи 24/7</text>
    <rect x="210" y="446" width="212" height="50" rx="12" fill="url(#grad)"/>
    <text x="316" y="477" text-anchor="middle" fill="#ffffff" font-size="15" font-weight="600">Начать бесплатно</text>

    <!-- чат-виджет в правом нижнем углу (по образцу ChatWidget.tsx) -->
    <g filter="url(#drop)">
      <rect x="700" y="252" width="300" height="256" rx="16" fill="#1a1a1a" stroke="#2a2a2a"/>
    </g>
    <g clip-path="url(#chat)">
      <rect x="700" y="252" width="300" height="50" fill="#111111"/>
    </g>
    <line x1="700" y1="302" x2="1000" y2="302" stroke="#2a2a2a"/>

    <!-- шапка виджета -->
    <text x="720" y="280" fill="#ededed" font-size="14" font-weight="600">ИИ-консультант</text>
    <text x="720" y="296" fill="#10b981" font-size="11.5">Онлайн</text>
    <g transform="translate(982,278)" stroke="#8f8f8f" stroke-width="1.5" stroke-linecap="round"><path d="M0 0l10 10M10 0l-10 10"/></g>

    <!-- приветствие ассистента (без аватара) -->
    <rect x="720" y="316" width="204" height="32" rx="13" fill="#111111"/>
    <text x="736" y="337" fill="#ededed" font-size="13.5">Здравствуйте! Чем помочь?</text>

    <!-- сообщение посетителя -->
    <rect x="818" y="362" width="166" height="32" rx="13" fill="url(#grad)"/>
    <text x="968" y="383" text-anchor="end" fill="#ffffff" font-size="13.5">Работаете в субботу?</text>

    <!-- ответ ассистента -->
    <rect x="720" y="408" width="172" height="32" rx="13" fill="#111111"/>
    <text x="736" y="429" fill="#ededed" font-size="13.5">Да, с 9:00 до 18:00.</text>

    <!-- поле ввода -->
    <line x1="700" y1="460" x2="1000" y2="460" stroke="#2a2a2a"/>
    <rect x="720" y="470" width="260" height="30" rx="11" fill="#111111"/>
    <text x="736" y="490" fill="#8f8f8f" font-size="12.5">Задайте вопрос...</text>
    <rect x="946" y="472" width="26" height="26" rx="7" fill="#8b5cf6"/>
    <g transform="translate(952,478)" fill="none" stroke="#ffffff" stroke-width="1.5" stroke-linecap="round" stroke-linejoin="round"><path d="M13 0L0 5l5 2 2 5z"/></g>

    <!-- плавающая кнопка виджета (FAB) -->
    <g filter="url(#fab)">
      <circle cx="996" cy="556" r="19" fill="url(#grad)"/>
    </g>
    <g transform="translate(988,548)" stroke="#ffffff" stroke-width="2" stroke-linecap="round"><path d="M0 0l16 16M16 0l-16 16"/></g>
  </g>
</svg>
