<svg xmlns="http://www.w3.org/2000/svg" viewBox="0 0 1200 640" width="1200" height="640" font-family="Inter, ui-sans-serif, system-ui, -apple-system, Segoe UI, sans-serif">
  <defs>
    <linearGradient id="grad" x1="0" y1="0" x2="1" y2="1">
      <stop offset="0" stop-color="#8b5cf6"/><stop offset="1" stop-color="#ec4899"/>
    </linearGradient>
    <pattern id="dots" width="26" height="26" patternUnits="userSpaceOnUse">
      <circle cx="1.5" cy="1.5" r="1.2" fill="#ffffff" fill-opacity="0.045"/>
    </pattern>
    <filter id="drop" x="-30%" y="-30%" width="160%" height="160%">
      <feDropShadow dx="0" dy="16" stdDeviation="28" flood-color="#000000" flood-opacity="0.5"/>
    </filter>
    <filter id="glow" x="-60%" y="-60%" width="220%" height="220%"><feGaussianBlur stdDeviation="80"/></filter>
    <clipPath id="win"><rect x="150" y="76" width="900" height="520" rx="18"/></clipPath>
  </defs>

  <rect x="1" y="1" width="1198" height="638" rx="20" fill="#0b0b0b" stroke="#1f1f1f"/>
  <rect x="1" y="1" width="1198" height="638" rx="20" fill="url(#dots)"/>
  <ellipse cx="600" cy="330" rx="300" ry="200" fill="#8b5cf6" opacity="0.10" filter="url(#glow)"/>

  <text x="600" y="40" text-anchor="middle" font-family="ui-monospace, SFMono-Regular, Menlo, monospace" font-size="15" letter-spacing="3" fill="#c084fc" font-weight="600">САЙТ С ИИ-ФУНКЦИЕЙ</text>

  <!-- окно браузера: сайт клиента с AI-калькулятором -->
  <g filter="url(#drop)">
    <rect x="150" y="76" width="900" height="520" rx="18" fill="#131313" stroke="#2a2a2a"/>
  </g>
  <g clip-path="url(#win)">
    <!-- шапка браузера: строка вкладок + панель навигации -->
    <rect x="150" y="76" width="900" height="72" fill="#181818"/>
    <rect x="150" y="76" width="900" height="38" fill="#0f0f0f"/>
    <path d="M162 114 v-22 a8 8 0 0 1 8-8 h176 a8 8 0 0 1 8 8 v22 z" fill="#181818"/>
    <circle cx="180" cy="99" r="6" fill="url(#grad)"/>
    <text x="196" y="103" fill="#ededed" font-size="12.5" font-weight="600">Кухни Алматы</text>
    <g transform="translate(334,95)" stroke="#8f8f8f" stroke-width="1.3" stroke-linecap="round"><path d="M0 0l7 7M7 0l-7 7"/></g>
    <g transform="translate(372,93)" stroke="#6b6b6b" stroke-width="1.5" stroke-linecap="round"><path d="M6 0v12M0 6h12"/></g>
    <!-- кнопки окна Windows: свернуть, развернуть, закрыть -->
    <g stroke="#c9c9c9" stroke-width="1.3" fill="none" stroke-linecap="round" stroke-linejoin="round">
      <path d="M964 95h11"/>
      <rect x="996" y="90" width="10" height="10" rx="1"/>
      <path d="M1028 90l10 10M1038 90l-10 10"/>
    </g>
    <!-- навигация: назад, вперёд, обновить, домой -->
    <g fill="none" stroke-width="1.6" stroke-linecap="round" stroke-linejoin="round">
      <g transform="translate(172,124)" stroke="#b0b0b0"><path d="M13 6H1"/><path d="M6 1 1 6l5 5"/></g>
      <g transform="translate(200,124)" stroke="#565656"><path d="M1 6h12"/><path d="M8 1l5 5-5 5"/></g>
      <g transform="translate(228,123)" stroke="#b0b0b0"><path d="M13 6.5a5.5 5.5 0 1 1-1.6-3.9"/><path d="M13 1v4h-4"/></g>
      <g transform="translate(256,123)" stroke="#b0b0b0"><path d="M1 6l6-5 6 5"/><path d="M2.5 5.5v6.5h9V5.5"/></g>
    </g>
    <rect x="286" y="119" width="640" height="24" rx="12" fill="#0d0d0d" stroke="#262626"/>
    <g transform="translate(300,124)" stroke="#8f8f8f" stroke-width="1.2" fill="none" stroke-linecap="round" stroke-linejoin="round">
      <rect x="0" y="5" width="9" height="6.5" rx="1.4"/><path d="M1.7 5V3.7a2.8 2.8 0 0 1 5.6 0V5"/>
    </g>
    <text x="320" y="135" fill="#8f8f8f" font-size="12.5" font-family="ui-monospace, monospace">kuhni-almaty.kz</text>
    <g transform="translate(902,125)" fill="none" stroke="#8f8f8f" stroke-width="1.2" stroke-linecap="round" stroke-linejoin="round"><path d="M6 0.5l1.6 3.5 3.9.4-2.9 2.6.8 3.8L6 8.9 2.6 10.8l.8-3.8L.5 4.4l3.9-.4z"/></g>
    <g transform="translate(1010,123)" fill="#8f8f8f"><circle cx="0" cy="0" r="1.5"/><circle cx="0" cy="5.5" r="1.5"/><circle cx="0" cy="11" r="1.5"/></g>
    <line x1="150" y1="148" x2="1050" y2="148" stroke="#242424"/>

    <g transform="translate(0,24)">
    <!-- шапка сайта клиента -->
    <text x="190" y="164" fill="#ededed" font-size="17" font-weight="700">Кухни Алматы</text>
    <text x="800" y="163" fill="#8f8f8f" font-size="14">Каталог</text>
    <text x="884" y="163" fill="#8f8f8f" font-size="14">Цены</text>
    <text x="952" y="163" fill="#8f8f8f" font-size="14">Контакты</text>

    <!-- заголовок с AI-бейджем -->
    <text x="600" y="228" text-anchor="middle" fill="#ededed" font-size="30" font-weight="700">Узнайте стоимость своей кухни</text>
    <text x="600" y="258" text-anchor="middle" fill="#a1a1a1" font-size="15">Опишите задачу обычным текстом, ИИ-калькулятор посчитает смету</text>

    <!-- поле ввода с запросом человека -->
    <rect x="280" y="286" width="640" height="64" rx="14" fill="#1a1a1a" stroke="#2a2a2a"/>
    <text x="304" y="324" fill="#ededed" font-size="15.5">Кухня под ключ 3 метра, фасады МДФ, со встроенной техникой</text>

    <!-- кнопка -->
    <rect x="500" y="370" width="200" height="46" rx="12" fill="url(#grad)"/>
    <text x="600" y="399" text-anchor="middle" fill="#ffffff" font-size="15" font-weight="600">Посчитать стоимость</text>

    <!-- результат: смета -->
    <rect x="280" y="440" width="640" height="122" rx="14" fill="#161616" stroke="#8b5cf6" stroke-width="1.3"/>
    <circle cx="316" cy="476" r="15" fill="url(#grad)"/>
    <g transform="translate(308,468)" fill="none" stroke="#ffffff" stroke-width="1.6" stroke-linecap="round" stroke-linejoin="round">
      <path d="M9.94 14.5A2 2 0 0 0 8.5 13.06l-4.6-1.19a.4.4 0 0 1 0-.74l4.6-1.19A2 2 0 0 0 9.94 8.5l1.19-4.6a.4.4 0 0 1 .74 0l1.19 4.6A2 2 0 0 0 15.5 9.94l4.6 1.19a.4.4 0 0 1 0 .74l-4.6 1.19A2 2 0 0 0 13.06 14.5l-1.19 4.6a.4.4 0 0 1-.74 0z" transform="scale(0.67)"/>
    </g>
    <text x="342" y="472" fill="#8f8f8f" font-size="13">Примерная смета</text>
    <text x="342" y="500" fill="#ededed" font-size="21" font-weight="700" font-family="ui-monospace, monospace">850 000 – 1 200 000 ₸</text>
    <text x="342" y="530" fill="#a1a1a1" font-size="14">срок 3-4 недели, точная цена после замера</text>
    <rect x="756" y="486" width="140" height="40" rx="11" fill="url(#grad)"/>
    <text x="826" y="511" text-anchor="middle" fill="#ffffff" font-size="14" font-weight="600">Оставить заявку</text>
    </g>
  </g>
</svg>
