<svg xmlns="http://www.w3.org/2000/svg" viewBox="0 0 1200 640" width="1200" height="640" font-family="Inter, ui-sans-serif, system-ui, -apple-system, Segoe UI, sans-serif">
  <defs>
    <linearGradient id="grad" x1="0" y1="0" x2="1" y2="1">
      <stop offset="0" stop-color="#8b5cf6"/><stop offset="1" stop-color="#ec4899"/>
    </linearGradient>
    <pattern id="dots" width="26" height="26" patternUnits="userSpaceOnUse">
      <circle cx="1.5" cy="1.5" r="1.2" fill="#ffffff" fill-opacity="0.045"/>
    </pattern>
    <filter id="drop" x="-30%" y="-30%" width="160%" height="160%">
      <feDropShadow dx="0" dy="16" stdDeviation="28" flood-color="#000000" flood-opacity="0.5"/>
    </filter>
    <filter id="dropSm" x="-40%" y="-40%" width="180%" height="180%">
      <feDropShadow dx="0" dy="8" stdDeviation="14" flood-color="#000000" flood-opacity="0.45"/>
    </filter>
    <filter id="glow" x="-60%" y="-60%" width="220%" height="220%"><feGaussianBlur stdDeviation="80"/></filter>
    <clipPath id="scr"><rect x="470" y="44" width="260" height="556" rx="34"/></clipPath>
  </defs>

  <rect x="1" y="1" width="1198" height="638" rx="20" fill="#0b0b0b" stroke="#1f1f1f"/>
  <rect x="1" y="1" width="1198" height="638" rx="20" fill="url(#dots)"/>
  <ellipse cx="600" cy="320" rx="240" ry="200" fill="#8b5cf6" opacity="0.12" filter="url(#glow)"/>

  <text x="600" y="40" text-anchor="middle" font-family="ui-monospace, SFMono-Regular, Menlo, monospace" font-size="15" letter-spacing="3" fill="#c084fc" font-weight="600">MVP МОБИЛЬНОГО ПРИЛОЖЕНИЯ</text>

  <!-- бейджи состава MVP: 4 разных факта -->
  <g filter="url(#dropSm)">
    <rect x="140" y="150" width="260" height="78" rx="14" fill="#161616" stroke="#2a2a2a"/>
    <text x="164" y="184" fill="#ededed" font-size="15" font-weight="600">Один код</text>
    <text x="164" y="207" fill="#8f8f8f" font-size="13">работает на iOS и Android</text>
  </g>
  <g filter="url(#dropSm)">
    <rect x="140" y="404" width="260" height="78" rx="14" fill="#161616" stroke="#2a2a2a"/>
    <text x="164" y="438" fill="#ededed" font-size="15" font-weight="600">Одна главная функция</text>
    <text x="164" y="461" fill="#8f8f8f" font-size="13">ничего лишнего в первой версии</text>
  </g>
  <g filter="url(#dropSm)">
    <rect x="800" y="150" width="260" height="78" rx="14" fill="#161616" stroke="#2a2a2a"/>
    <text x="824" y="184" fill="#ededed" font-size="15" font-weight="600">Авторизация и база данных</text>
    <text x="824" y="207" fill="#8f8f8f" font-size="13">вход и хранение данных</text>
  </g>
  <g filter="url(#dropSm)">
    <rect x="800" y="404" width="260" height="78" rx="14" fill="#161616" stroke="#2a2a2a"/>
    <text x="824" y="438" fill="#ededed" font-size="15" font-weight="600">Сборка для теста</text>
    <text x="824" y="461" fill="#8f8f8f" font-size="13">на реальных устройствах</text>
  </g>
  <g fill="none" stroke="#8b5cf6" stroke-width="1.5" opacity="0.4">
    <path d="M400 189 L 482 189"/>
    <path d="M400 443 L 482 443"/>
    <path d="M800 189 L 718 189"/>
    <path d="M800 443 L 718 443"/>
  </g>

  <!-- телефон: пропорции реального смартфона (сжат 0.81, чтобы сверху влезла подпись) -->
  <g transform="translate(600,322) scale(0.81) translate(-600,-322)">
  <g filter="url(#drop)">
    <rect x="454" y="28" width="292" height="588" rx="48" fill="#1a1a1a" stroke="#2f2f2f" stroke-width="2"/>
  </g>
  <rect x="470" y="44" width="260" height="556" rx="34" fill="#0d0d0d"/>

  <g clip-path="url(#scr)">
    <!-- статус-бар: время и иконки на линии выреза -->
    <rect x="563" y="56" width="74" height="20" rx="10" fill="#1c1c1c"/>
    <text x="500" y="72" fill="#ededed" font-size="14" font-weight="600">9:41</text>
    <rect x="652" y="66" width="3" height="5" rx="1" fill="#ededed"/>
    <rect x="657" y="64" width="3" height="7" rx="1" fill="#ededed"/>
    <rect x="662" y="62" width="3" height="9" rx="1" fill="#ededed"/>
    <rect x="667" y="60" width="3" height="11" rx="1" fill="#ededed"/>
    <rect x="678" y="60.5" width="24" height="12" rx="3.5" fill="none" stroke="#8f8f8f" stroke-width="1.3"/>
    <rect x="680.5" y="63" width="14" height="7" rx="1.8" fill="#ededed"/>
    <rect x="703.5" y="64" width="2.5" height="5" rx="1.2" fill="#8f8f8f"/>

    <!-- заголовок приложения -->
    <text x="494" y="126" fill="#ededed" font-size="21" font-weight="700">Запись к врачу</text>
    <text x="494" y="150" fill="#8f8f8f" font-size="13">свободное время на сегодня</text>

    <!-- карточка 1 -->
    <rect x="492" y="172" width="216" height="112" rx="16" fill="#171717" stroke="#262626"/>
    <text x="510" y="204" fill="#ededed" font-size="16" font-weight="600">Терапевт</text>
    <text x="510" y="226" fill="#8f8f8f" font-size="13">Айгерим К. · 15:30</text>
    <rect x="508" y="240" width="184" height="30" rx="9" fill="url(#grad)"/>
    <text x="600" y="260" text-anchor="middle" fill="#ffffff" font-size="12.5" font-weight="600">Записаться</text>

    <!-- карточка 2 -->
    <rect x="492" y="296" width="216" height="112" rx="16" fill="#171717" stroke="#262626"/>
    <text x="510" y="328" fill="#ededed" font-size="16" font-weight="600">Стоматолог</text>
    <text x="510" y="350" fill="#8f8f8f" font-size="13">Дамир С.</text>
    <rect x="508" y="364" width="88" height="30" rx="9" fill="#1f1f1f" stroke="#3a3a3a"/>
    <text x="552" y="384" text-anchor="middle" fill="#c084fc" font-size="12.5" font-weight="600">16:00</text>
    <rect x="606" y="364" width="88" height="30" rx="9" fill="#1f1f1f" stroke="#3a3a3a"/>
    <text x="650" y="384" text-anchor="middle" fill="#c084fc" font-size="12.5" font-weight="600">18:30</text>

    <!-- карточка 3 -->
    <rect x="492" y="420" width="216" height="112" rx="16" fill="#171717" stroke="#262626"/>
    <text x="510" y="452" fill="#ededed" font-size="16" font-weight="600">Педиатр</text>
    <text x="510" y="474" fill="#8f8f8f" font-size="13">Салтанат Б.</text>
    <rect x="508" y="488" width="88" height="30" rx="9" fill="#1f1f1f" stroke="#3a3a3a"/>
    <text x="552" y="508" text-anchor="middle" fill="#c084fc" font-size="12.5" font-weight="600">17:15</text>
    <rect x="606" y="488" width="88" height="30" rx="9" fill="#1f1f1f" stroke="#3a3a3a"/>
    <text x="650" y="508" text-anchor="middle" fill="#c084fc" font-size="12.5" font-weight="600">19:00</text>


    <!-- нижнее меню приложения -->
    <rect x="470" y="546" width="260" height="54" fill="#141414"/>
    <line x1="470" y1="546" x2="730" y2="546" stroke="#242424"/>
    <g transform="translate(524,562)" fill="none" stroke="#c084fc" stroke-width="1.8" stroke-linecap="round" stroke-linejoin="round">
      <path d="M3 9.5 12 3l9 6.5" transform="scale(0.85)"/><path d="M5 10v9a1 1 0 0 0 1 1h12a1 1 0 0 0 1-1v-9" transform="scale(0.85)"/>
    </g>
    <circle cx="533" cy="590" r="2" fill="#c084fc"/>
    <g transform="translate(590,562)" fill="none" stroke="#5a5a5a" stroke-width="1.8" stroke-linecap="round" stroke-linejoin="round">
      <path d="M8 2v4" transform="scale(0.85)"/><path d="M16 2v4" transform="scale(0.85)"/><rect x="3" y="4" width="18" height="18" rx="2" transform="scale(0.85)"/><path d="M3 10h18" transform="scale(0.85)"/>
    </g>
    <g transform="translate(656,562)" fill="none" stroke="#5a5a5a" stroke-width="1.8" stroke-linecap="round" stroke-linejoin="round">
      <path d="M19 21v-2a4 4 0 0 0-4-4H9a4 4 0 0 0-4 4v2" transform="scale(0.85)"/><circle cx="12" cy="7" r="4" transform="scale(0.85)"/>
    </g>
  </g>
  </g>
</svg>
