<svg xmlns="http://www.w3.org/2000/svg" viewBox="0 0 1200 640" width="1200" height="640" font-family="Inter, ui-sans-serif, system-ui, -apple-system, Segoe UI, sans-serif">
  <defs>
    <linearGradient id="grad" x1="0" y1="0" x2="1" y2="1">
      <stop offset="0" stop-color="#8b5cf6"/><stop offset="1" stop-color="#ec4899"/>
    </linearGradient>
    <pattern id="dots" width="26" height="26" patternUnits="userSpaceOnUse">
      <circle cx="1.5" cy="1.5" r="1.2" fill="#ffffff" fill-opacity="0.045"/>
    </pattern>
    <filter id="drop" x="-30%" y="-30%" width="160%" height="160%">
      <feDropShadow dx="0" dy="16" stdDeviation="28" flood-color="#000000" flood-opacity="0.5"/>
    </filter>
    <filter id="glow" x="-60%" y="-60%" width="220%" height="220%"><feGaussianBlur stdDeviation="80"/></filter>
    <clipPath id="win"><rect x="150" y="76" width="900" height="520" rx="18"/></clipPath>
  </defs>

  <rect x="1" y="1" width="1198" height="638" rx="20" fill="#0b0b0b" stroke="#1f1f1f"/>
  <rect x="1" y="1" width="1198" height="638" rx="20" fill="url(#dots)"/>
  <ellipse cx="600" cy="330" rx="300" ry="200" fill="#8b5cf6" opacity="0.10" filter="url(#glow)"/>

  <text x="600" y="40" text-anchor="middle" font-family="ui-monospace, SFMono-Regular, Menlo, monospace" font-size="15" letter-spacing="3" fill="#c084fc" font-weight="600">MVP ВЕБ-ПРИЛОЖЕНИЯ</text>

  <!-- окно браузера -->
  <g filter="url(#drop)">
    <rect x="150" y="76" width="900" height="520" rx="18" fill="#131313" stroke="#2a2a2a"/>
  </g>
  <g clip-path="url(#win)">
    <!-- шапка браузера: строка вкладок + панель навигации -->
    <rect x="150" y="76" width="900" height="72" fill="#181818"/>
    <rect x="150" y="76" width="900" height="38" fill="#0f0f0f"/>
    <circle cx="172" cy="95" r="5" fill="#ff5f57"/><circle cx="190" cy="95" r="5" fill="#febc2e"/><circle cx="208" cy="95" r="5" fill="#28c840"/>
    <path d="M230 114 v-22 a8 8 0 0 1 8-8 h174 a8 8 0 0 1 8 8 v22 z" fill="#181818"/>
    <circle cx="248" cy="99" r="6" fill="url(#grad)"/>
    <text x="264" y="103" fill="#ededed" font-size="12.5" font-weight="600">Кабинет</text>
    <g transform="translate(400,95)" stroke="#8f8f8f" stroke-width="1.3" stroke-linecap="round"><path d="M0 0l7 7M7 0l-7 7"/></g>
    <g transform="translate(440,93)" stroke="#6b6b6b" stroke-width="1.5" stroke-linecap="round"><path d="M6 0v12M0 6h12"/></g>
    <!-- навигация: назад, вперёд, обновить, домой -->
    <g fill="none" stroke-width="1.6" stroke-linecap="round" stroke-linejoin="round">
      <g transform="translate(172,124)" stroke="#b0b0b0"><path d="M13 6H1"/><path d="M6 1 1 6l5 5"/></g>
      <g transform="translate(200,124)" stroke="#565656"><path d="M1 6h12"/><path d="M8 1l5 5-5 5"/></g>
      <g transform="translate(228,123)" stroke="#b0b0b0"><path d="M13 6.5a5.5 5.5 0 1 1-1.6-3.9"/><path d="M13 1v4h-4"/></g>
      <g transform="translate(256,123)" stroke="#b0b0b0"><path d="M1 6l6-5 6 5"/><path d="M2.5 5.5v6.5h9V5.5"/></g>
    </g>
    <rect x="286" y="119" width="640" height="24" rx="12" fill="#0d0d0d" stroke="#262626"/>
    <g transform="translate(300,124)" stroke="#8f8f8f" stroke-width="1.2" fill="none" stroke-linecap="round" stroke-linejoin="round">
      <rect x="0" y="5" width="9" height="6.5" rx="1.4"/><path d="M1.7 5V3.7a2.8 2.8 0 0 1 5.6 0V5"/>
    </g>
    <text x="320" y="135" fill="#8f8f8f" font-size="12.5" font-family="ui-monospace, monospace">app.vashbiznes.kz</text>
    <g transform="translate(902,125)" fill="none" stroke="#8f8f8f" stroke-width="1.2" stroke-linecap="round" stroke-linejoin="round"><path d="M6 0.5l1.6 3.5 3.9.4-2.9 2.6.8 3.8L6 8.9 2.6 10.8l.8-3.8L.5 4.4l3.9-.4z"/></g>
    <g transform="translate(1010,123)" fill="#8f8f8f"><circle cx="0" cy="0" r="1.5"/><circle cx="0" cy="5.5" r="1.5"/><circle cx="0" cy="11" r="1.5"/></g>
    <line x1="150" y1="148" x2="1050" y2="148" stroke="#242424"/>

    <g transform="translate(0,24)">
    <!-- сайдбар -->
    <rect x="150" y="124" width="200" height="472" fill="#161616"/>
    <text x="176" y="162" fill="#ededed" font-size="16" font-weight="700">Кабинет</text>
    <rect x="164" y="184" width="172" height="38" rx="10" fill="#8b5cf6" fill-opacity="0.16"/>
    <text x="182" y="209" fill="#c084fc" font-size="14.5" font-weight="600">Заявки</text>
    <text x="182" y="253" fill="#8f8f8f" font-size="14.5">Клиенты</text>
    <text x="182" y="295" fill="#8f8f8f" font-size="14.5">Отчеты</text>
    <text x="182" y="337" fill="#8f8f8f" font-size="14.5">Настройки</text>

    <!-- метрики -->
    <rect x="378" y="148" width="200" height="92" rx="14" fill="#1a1a1a" stroke="#2a2a2a"/>
    <text x="398" y="180" fill="#8f8f8f" font-size="13">Заявок за месяц</text>
    <text x="398" y="216" fill="#ededed" font-size="26" font-weight="700" font-family="ui-monospace, monospace">1 248</text>
    <rect x="596" y="148" width="200" height="92" rx="14" fill="#1a1a1a" stroke="#2a2a2a"/>
    <text x="616" y="180" fill="#8f8f8f" font-size="13">Новых клиентов</text>
    <text x="616" y="216" fill="#ededed" font-size="26" font-weight="700" font-family="ui-monospace, monospace">312</text>
    <rect x="814" y="148" width="208" height="92" rx="14" fill="#1a1a1a" stroke="#2a2a2a"/>
    <text x="834" y="180" fill="#8f8f8f" font-size="13">Выручка</text>
    <text x="834" y="216" fill="#ededed" font-size="23" font-weight="700" font-family="ui-monospace, monospace">2.4 млн ₸</text>

    <!-- график -->
    <rect x="378" y="264" width="644" height="180" rx="14" fill="#1a1a1a" stroke="#2a2a2a"/>
    <text x="400" y="294" fill="#a1a1a1" font-size="13.5">Заявки по дням</text>
    <g>
      <rect x="404" y="384" width="42" height="38" rx="6" fill="#3a3a3a"/>
      <rect x="460" y="366" width="42" height="56" rx="6" fill="#3a3a3a"/>
      <rect x="516" y="376" width="42" height="46" rx="6" fill="#3a3a3a"/>
      <rect x="572" y="350" width="42" height="72" rx="6" fill="#3a3a3a"/>
      <rect x="628" y="362" width="42" height="60" rx="6" fill="#3a3a3a"/>
      <rect x="684" y="338" width="42" height="84" rx="6" fill="#3a3a3a"/>
      <rect x="740" y="352" width="42" height="70" rx="6" fill="#3a3a3a"/>
      <rect x="796" y="330" width="42" height="92" rx="6" fill="#3a3a3a"/>
      <rect x="852" y="340" width="42" height="82" rx="6" fill="#8b5cf6"/>
      <rect x="908" y="322" width="42" height="100" rx="6" fill="url(#grad)"/>
    </g>

    <!-- таблица последних заявок -->
    <rect x="378" y="468" width="644" height="104" rx="14" fill="#1a1a1a" stroke="#2a2a2a"/>
    <text x="400" y="498" fill="#a1a1a1" font-size="13.5">Последние заявки</text>
    <circle cx="410" cy="524" r="4" fill="#10b981"/>
    <text x="426" y="529" fill="#ededed" font-size="14">Айгерим — консультация</text>
    <text x="1000" y="529" text-anchor="end" fill="#8f8f8f" font-size="13" font-family="ui-monospace, monospace">14:02</text>
    <circle cx="410" cy="552" r="4" fill="#f59e0b"/>
    <text x="426" y="557" fill="#ededed" font-size="14">Даулет — заказ №482, ждет счет</text>
    <text x="1000" y="557" text-anchor="end" fill="#8f8f8f" font-size="13" font-family="ui-monospace, monospace">13:47</text>
    </g>
  </g>
</svg>
